<svg data-v-fde0c5aa="" xmlns="http://www.w3.org/2000/svg" viewBox="0 0 300 300" class="iconAbove"><!----><defs data-v-fde0c5aa=""><!----></defs><rect data-v-fde0c5aa="" fill="#0077b6" x="0" y="0" width="300px" height="300px" class="logo-background-square"></rect><defs data-v-fde0c5aa=""><!----></defs><g data-v-fde0c5aa="" id="7e26d2b4-0bb1-4ae8-a855-4fac28551f65" fill="#ffffff" transform="matrix(2.559054964377638,0,0,2.559054964377638,17.85039374450511,170.119093893436)"><path d="M6.31 1.26L6.31 1.26Q8.27 1.26 9.77 2.51L9.77 2.51L9.77 2.51Q9.90 2.60 9.90 2.79L9.90 2.79L9.90 2.79Q9.90 2.95 9.79 3.09L9.79 3.09L9.79 3.09Q9.67 3.22 9.48 3.22L9.48 3.22L9.48 3.22Q9.32 3.22 9.13 3.05L9.13 3.05L9.13 3.05Q8.06 2.10 6.31 2.10L6.31 2.10L6.31 2.10Q5.08 2.10 4.01 2.76L4.01 2.76L4.01 2.76Q2.94 3.42 2.31 4.51L2.31 4.51L2.31 4.51Q1.68 5.61 1.68 6.86L1.68 6.86L1.68 6.86Q1.68 8.15 2.30 9.25L2.30 9.25L2.30 9.25Q2.93 10.35 4.00 10.99L4.00 10.99L4.00 10.99Q5.07 11.63 6.31 11.63L6.31 11.63L6.31 11.63Q7.97 11.63 9.21 10.61L9.21 10.61L9.21 10.61Q9.31 10.54 9.42 10.54L9.42 10.54L9.42 10.54Q9.59 10.54 9.72 10.67L9.72 10.67L9.72 10.67Q9.86 10.79 9.86 10.98L9.86 10.98L9.86 10.98Q9.86 11.16 9.76 11.27L9.76 11.27L9.76 11.27Q8.55 12.47 6.31 12.47L6.31 12.47L6.31 12.47Q4.84 12.47 3.58 11.71L3.58 11.71L3.58 11.71Q2.32 10.95 1.58 9.65L1.58 9.65L1.58 9.65Q0.84 8.36 0.84 6.86L0.84 6.86L0.84 6.86Q0.84 5.36 1.57 4.07L1.57 4.07L1.57 4.07Q2.31 2.79 3.56 2.02L3.56 2.02L3.56 2.02Q4.82 1.26 6.31 1.26L6.31 1.26ZM15.50 4.59L15.50 4.59Q16.59 4.59 17.49 5.10L17.49 5.10L17.49 5.10Q18.38 5.61 18.89 6.51L18.89 6.51L18.89 6.51Q19.40 7.41 19.40 8.51L19.40 8.51L19.40 8.51Q19.40 9.60 18.89 10.50L18.89 10.50L18.89 10.50Q18.38 11.40 17.49 11.91L17.49 11.91L17.49 11.91Q16.59 12.42 15.50 12.42L15.50 12.42L15.50 12.42Q14.39 12.42 13.50 11.91L13.50 11.91L13.50 11.91Q12.60 11.40 12.09 10.50L12.09 10.50L12.09 10.50Q11.58 9.60 11.58 8.51L11.58 8.51L11.58 8.51Q11.58 7.41 12.09 6.51L12.09 6.51L12.09 6.51Q12.60 5.61 13.50 5.10L13.50 5.10L13.50 5.10Q14.39 4.59 15.50 4.59L15.50 4.59ZM15.50 5.38L15.50 5.38Q14.63 5.38 13.93 5.79L13.93 5.79L13.93 5.79Q13.23 6.20 12.82 6.92L12.82 6.92L12.82 6.92Q12.42 7.63 12.42 8.51L12.42 8.51L12.42 8.51Q12.42 9.39 12.82 10.11L12.82 10.11L12.82 10.11Q13.23 10.82 13.93 11.23L13.93 11.23L13.93 11.23Q14.63 11.63 15.50 11.63L15.50 11.63L15.50 11.63Q16.37 11.63 17.07 11.23L17.07 11.23L17.07 11.23Q17.77 10.82 18.16 10.11L18.16 10.11L18.16 10.11Q18.56 9.39 18.56 8.51L18.56 8.51L18.56 8.51Q18.56 7.63 18.16 6.92L18.16 6.92L18.16 6.92Q17.77 6.20 17.07 5.79L17.07 5.79L17.07 5.79Q16.37 5.38 15.50 5.38L15.50 5.38ZM21.22 1.82L21.22 1.82Q21.22 1.62 21.34 1.51L21.34 1.51L21.34 1.51Q21.46 1.40 21.64 1.40L21.64 1.40L21.64 1.40Q21.84 1.40 21.95 1.51L21.95 1.51L21.95 1.51Q22.06 1.62 22.06 1.82L22.06 1.82L22.06 10.02L22.06 10.02Q22.06 10.67 22.34 11.08L22.34 11.08L22.34 11.08Q22.61 11.49 23.04 11.49L23.04 11.49L23.39 11.49L23.39 11.49Q23.55 11.49 23.65 11.61L23.65 11.61L23.65 11.61Q23.74 11.72 23.74 11.91L23.74 11.91L23.74 11.91Q23.74 12.10 23.63 12.21L23.63 12.21L23.63 12.21Q23.52 12.33 23.32 12.33L23.32 12.33L23.04 12.33L23.04 12.33Q22.25 12.33 21.73 11.69L21.73 11.69L21.73 11.69Q21.22 11.05 21.22 10.02L21.22 10.02L21.22 1.82ZM25.00 1.82L25.00 1.82Q25.00 1.62 25.12 1.51L25.12 1.51L25.12 1.51Q25.24 1.40 25.42 1.40L25.42 1.40L25.42 1.40Q25.62 1.40 25.73 1.51L25.73 1.51L25.73 1.51Q25.84 1.62 25.84 1.82L25.84 1.82L25.84 10.02L25.84 10.02Q25.84 10.67 26.12 11.08L26.12 11.08L26.12 11.08Q26.39 11.49 26.82 11.49L26.82 11.49L27.17 11.49L27.17 11.49Q27.33 11.49 27.43 11.61L27.43 11.61L27.43 11.61Q27.52 11.72 27.52 11.91L27.52 11.91L27.52 11.91Q27.52 12.10 27.41 12.21L27.41 12.21L27.41 12.21Q27.30 12.33 27.10 12.33L27.10 12.33L26.82 12.33L26.82 12.33Q26.03 12.33 25.52 11.69L25.52 11.69L25.52 11.69Q25.00 11.05 25.00 10.02L25.00 10.02L25.00 1.82ZM32.56 4.59L32.56 4.59Q33.66 4.59 34.55 5.10L34.55 5.10L34.55 5.10Q35.45 5.61 35.96 6.51L35.96 6.51L35.96 6.51Q36.47 7.41 36.47 8.51L36.47 8.51L36.47 11.91L36.47 11.91Q36.47 12.10 36.36 12.21L36.36 12.21L36.36 12.21Q36.25 12.33 36.05 12.33L36.05 12.33L36.05 12.33Q35.87 12.33 35.75 12.21L35.75 12.21L35.75 12.21Q35.63 12.10 35.63 11.91L35.63 11.91L35.63 10.82L35.63 10.82Q35.17 11.56 34.36 11.99L34.36 11.99L34.36 11.99Q33.56 12.42 32.56 12.42L32.56 12.42L32.56 12.42Q31.46 12.42 30.56 11.91L30.56 11.91L30.56 11.91Q29.67 11.40 29.16 10.50L29.16 10.50L29.16 10.50Q28.64 9.60 28.64 8.51L28.64 8.51L28.64 8.51Q28.64 7.41 29.16 6.51L29.16 6.51L29.16 6.51Q29.67 5.61 30.56 5.10L30.56 5.10L30.56 5.10Q31.46 4.59 32.56 4.59L32.56 4.59ZM32.56 11.63L32.56 11.63Q33.43 11.63 34.13 11.23L34.13 11.23L34.13 11.23Q34.83 10.82 35.23 10.11L35.23 10.11L35.23 10.11Q35.63 9.39 35.63 8.51L35.63 8.51L35.63 8.51Q35.63 7.63 35.23 6.92L35.23 6.92L35.23 6.92Q34.83 6.20 34.13 5.79L34.13 5.79L34.13 5.79Q33.43 5.38 32.56 5.38L32.56 5.38L32.56 5.38Q31.70 5.38 31.00 5.79L31.00 5.79L31.00 5.79Q30.30 6.20 29.89 6.92L29.89 6.92L29.89 6.92Q29.48 7.63 29.48 8.51L29.48 8.51L29.48 8.51Q29.48 9.39 29.89 10.11L29.89 10.11L29.89 10.11Q30.30 10.82 31.00 11.23L31.00 11.23L31.00 11.23Q31.70 11.63 32.56 11.63L32.56 11.63ZM38.99 1.40L38.99 1.40Q38.79 1.40 38.68 1.51L38.68 1.51L38.68 1.51Q38.57 1.62 38.57 1.82L38.57 1.82L38.57 8.55L38.57 8.58L38.57 8.58Q38.58 9.66 39.10 10.54L39.10 10.54L39.10 10.54Q39.62 11.42 40.51 11.92L40.51 11.92L40.51 11.92Q41.40 12.42 42.48 12.42L42.48 12.42L42.48 12.42Q43.58 12.42 44.48 11.91L44.48 11.91L44.48 11.91Q45.37 11.40 45.89 10.50L45.89 10.50L45.89 10.50Q46.40 9.60 46.40 8.50L46.40 8.50L46.40 8.50Q46.40 7.41 45.89 6.51L45.89 6.51L45.89 6.51Q45.37 5.61 44.48 5.10L44.48 5.10L44.48 5.10Q43.58 4.59 42.48 4.59L42.48 4.59L42.48 4.59Q41.48 4.59 40.68 5.02L40.68 5.02L40.68 5.02Q39.87 5.45 39.41 6.19L39.41 6.19L39.41 1.82L39.41 1.82Q39.41 1.62 39.29 1.51L39.29 1.51L39.29 1.51Q39.17 1.40 38.99 1.40L38.99 1.40ZM42.48 11.63L42.48 11.63Q41.61 11.63 40.91 11.22L40.91 11.22L40.91 11.22Q40.21 10.81 39.81 10.09L39.81 10.09L39.81 10.09Q39.41 9.38 39.41 8.50L39.41 8.50L39.41 8.50Q39.41 7.62 39.81 6.90L39.81 6.90L39.81 6.90Q40.21 6.19 40.91 5.78L40.91 5.78L40.91 5.78Q41.61 5.38 42.48 5.38L42.48 5.38L42.48 5.38Q43.34 5.38 44.04 5.78L44.04 5.78L44.04 5.78Q44.74 6.19 45.15 6.90L45.15 6.90L45.15 6.90Q45.56 7.62 45.56 8.50L45.56 8.50L45.56 8.50Q45.56 9.38 45.15 10.09L45.15 10.09L45.15 10.09Q44.74 10.81 44.04 11.22L44.04 11.22L44.04 11.22Q43.34 11.63 42.48 11.63L42.48 11.63ZM52.00 4.59L52.00 4.59Q53.09 4.59 53.98 5.10L53.98 5.10L53.98 5.10Q54.88 5.61 55.39 6.51L55.39 6.51L55.39 6.51Q55.90 7.41 55.90 8.51L55.90 8.51L55.90 8.51Q55.90 9.60 55.39 10.50L55.39 10.50L55.39 10.50Q54.88 11.40 53.98 11.91L53.98 11.91L53.98 11.91Q53.09 12.42 52.00 12.42L52.00 12.42L52.00 12.42Q50.89 12.42 49.99 11.91L49.99 11.91L49.99 11.91Q49.10 11.40 48.59 10.50L48.59 10.50L48.59 10.50Q48.08 9.60 48.08 8.51L48.08 8.51L48.08 8.51Q48.08 7.41 48.59 6.51L48.59 6.51L48.59 6.51Q49.10 5.61 49.99 5.10L49.99 5.10L49.99 5.10Q50.89 4.59 52.00 4.59L52.00 4.59ZM52.00 5.38L52.00 5.38Q51.13 5.38 50.43 5.79L50.43 5.79L50.43 5.79Q49.73 6.20 49.32 6.92L49.32 6.92L49.32 6.92Q48.92 7.63 48.92 8.51L48.92 8.51L48.92 8.51Q48.92 9.39 49.32 10.11L49.32 10.11L49.32 10.11Q49.73 10.82 50.43 11.23L50.43 11.23L50.43 11.23Q51.13 11.63 52.00 11.63L52.00 11.63L52.00 11.63Q52.86 11.63 53.56 11.23L53.56 11.23L53.56 11.23Q54.26 10.82 54.66 10.11L54.66 10.11L54.66 10.11Q55.06 9.39 55.06 8.51L55.06 8.51L55.06 8.51Q55.06 7.63 54.66 6.92L54.66 6.92L54.66 6.92Q54.26 6.20 53.56 5.79L53.56 5.79L53.56 5.79Q52.86 5.38 52.00 5.38L52.00 5.38ZM61.25 4.59L61.25 4.59Q62.31 4.59 62.31 5.05L62.31 5.05L62.31 5.05Q62.31 5.12 62.30 5.17L62.30 5.17L62.30 5.17Q62.26 5.32 62.17 5.38L62.17 5.38L62.17 5.38Q62.08 5.45 61.92 5.45L61.92 5.45L61.92 5.45Q61.80 5.45 61.59 5.42L61.59 5.42L61.59 5.42Q61.39 5.39 61.25 5.39L61.25 5.39L61.25 5.39Q60.55 5.39 60.00 5.68L60.00 5.68L60.00 5.68Q59.46 5.98 59.15 6.50L59.15 6.50L59.15 6.50Q58.84 7.01 58.84 7.66L58.84 7.66L58.84 11.91L58.84 11.91Q58.84 12.10 58.73 12.21L58.73 12.21L58.73 12.21Q58.62 12.33 58.42 12.33L58.42 12.33L58.42 12.33Q58.24 12.33 58.12 12.21L58.12 12.21L58.12 12.21Q58.00 12.10 58.00 11.91L58.00 11.91L58.00 5.10L58.00 5.10Q58.00 4.90 58.12 4.79L58.12 4.79L58.12 4.79Q58.24 4.68 58.42 4.68L58.42 4.68L58.42 4.68Q58.62 4.68 58.73 4.79L58.73 4.79L58.73 4.79Q58.84 4.90 58.84 5.10L58.84 5.10L58.84 5.96L58.84 5.96Q59.25 5.32 59.88 4.96L59.88 4.96L59.88 4.96Q60.51 4.59 61.25 4.59L61.25 4.59ZM67.63 4.59L67.63 4.59Q68.73 4.59 69.62 5.10L69.62 5.10L69.62 5.10Q70.52 5.61 71.03 6.51L71.03 6.51L71.03 6.51Q71.54 7.41 71.54 8.51L71.54 8.51L71.54 11.91L71.54 11.91Q71.54 12.10 71.43 12.21L71.43 12.21L71.43 12.21Q71.32 12.33 71.12 12.33L71.12 12.33L71.12 12.33Q70.94 12.33 70.82 12.21L70.82 12.21L70.82 12.21Q70.70 12.10 70.70 11.91L70.70 11.91L70.70 10.82L70.70 10.82Q70.24 11.56 69.43 11.99L69.43 11.99L69.43 11.99Q68.63 12.42 67.63 12.42L67.63 12.42L67.63 12.42Q66.53 12.42 65.63 11.91L65.63 11.91L65.63 11.91Q64.74 11.40 64.23 10.50L64.23 10.50L64.23 10.50Q63.71 9.60 63.71 8.51L63.71 8.51L63.71 8.51Q63.71 7.41 64.23 6.51L64.23 6.51L64.23 6.51Q64.74 5.61 65.63 5.10L65.63 5.10L65.63 5.10Q66.53 4.59 67.63 4.59L67.63 4.59ZM67.63 11.63L67.63 11.63Q68.50 11.63 69.20 11.23L69.20 11.23L69.20 11.23Q69.90 10.82 70.30 10.11L70.30 10.11L70.30 10.11Q70.70 9.39 70.70 8.51L70.70 8.51L70.70 8.51Q70.70 7.63 70.30 6.92L70.30 6.92L70.30 6.92Q69.90 6.20 69.20 5.79L69.20 5.79L69.20 5.79Q68.50 5.38 67.63 5.38L67.63 5.38L67.63 5.38Q66.77 5.38 66.07 5.79L66.07 5.79L66.07 5.79Q65.37 6.20 64.96 6.92L64.96 6.92L64.96 6.92Q64.55 7.63 64.55 8.51L64.55 8.51L64.55 8.51Q64.55 9.39 64.96 10.11L64.96 10.11L64.96 10.11Q65.37 10.82 66.07 11.23L66.07 11.23L66.07 11.23Q66.77 11.63 67.63 11.63L67.63 11.63ZM74.62 11.91L74.62 11.91Q74.62 12.10 74.51 12.21L74.51 12.21L74.51 12.21Q74.40 12.33 74.20 12.33L74.20 12.33L74.20 12.33Q74.02 12.33 73.90 12.21L73.90 12.21L73.90 12.21Q73.78 12.10 73.78 11.91L73.78 11.91L73.78 1.82L73.78 1.82Q73.78 1.62 73.90 1.51L73.90 1.51L73.90 1.51Q74.02 1.40 74.20 1.40L74.20 1.40L77 1.40L77 1.40Q78.01 1.40 78.81 1.85L78.81 1.85L78.81 1.85Q79.60 2.30 80.05 3.09L80.05 3.09L80.05 3.09Q80.50 3.89 80.50 4.90L80.50 4.90L80.50 4.90Q80.50 5.92 80.05 6.72L80.05 6.72L80.05 6.72Q79.60 7.52 78.81 7.97L78.81 7.97L78.81 7.97Q78.01 8.41 77 8.41L77 8.41L74.62 8.41L74.62 11.91ZM77 7.57L77 7.57Q77.77 7.57 78.37 7.23L78.37 7.23L78.37 7.23Q78.97 6.89 79.32 6.28L79.32 6.28L79.32 6.28Q79.66 5.67 79.66 4.90L79.66 4.90L79.66 4.90Q79.66 4.13 79.32 3.53L79.32 3.53L79.32 3.53Q78.97 2.93 78.37 2.58L78.37 2.58L78.37 2.58Q77.77 2.24 77 2.24L77 2.24L74.62 2.24L74.62 7.57L77 7.57ZM81.83 1.82L81.83 1.82Q81.83 1.62 81.95 1.51L81.95 1.51L81.95 1.51Q82.07 1.40 82.25 1.40L82.25 1.40L82.25 1.40Q82.45 1.40 82.56 1.51L82.56 1.51L82.56 1.51Q82.67 1.62 82.67 1.82L82.67 1.82L82.67 10.02L82.67 10.02Q82.67 10.67 82.94 11.08L82.94 11.08L82.94 11.08Q83.22 11.49 83.65 11.49L83.65 11.49L84 11.49L84 11.49Q84.15 11.49 84.25 11.61L84.25 11.61L84.25 11.61Q84.35 11.72 84.35 11.91L84.35 11.91L84.35 11.91Q84.35 12.10 84.24 12.21L84.24 12.21L84.24 12.21Q84.13 12.33 83.93 12.33L83.93 12.33L83.65 12.33L83.65 12.33Q82.85 12.33 82.34 11.69L82.34 11.69L82.34 11.69Q81.83 11.05 81.83 10.02L81.83 10.02L81.83 1.82ZM89.39 4.59L89.39 4.59Q90.48 4.59 91.38 5.10L91.38 5.10L91.38 5.10Q92.27 5.61 92.78 6.51L92.78 6.51L92.78 6.51Q93.30 7.41 93.30 8.51L93.30 8.51L93.30 11.91L93.30 11.91Q93.30 12.10 93.18 12.21L93.18 12.21L93.18 12.21Q93.07 12.33 92.88 12.33L92.88 12.33L92.88 12.33Q92.69 12.33 92.57 12.21L92.57 12.21L92.57 12.21Q92.46 12.10 92.46 11.91L92.46 11.91L92.46 10.82L92.46 10.82Q91.99 11.56 91.19 11.99L91.19 11.99L91.19 11.99Q90.38 12.42 89.39 12.42L89.39 12.42L89.39 12.42Q88.28 12.42 87.39 11.91L87.39 11.91L87.39 11.91Q86.49 11.40 85.98 10.50L85.98 10.50L85.98 10.50Q85.47 9.60 85.47 8.51L85.47 8.51L85.47 8.51Q85.47 7.41 85.98 6.51L85.98 6.51L85.98 6.51Q86.49 5.61 87.39 5.10L87.39 5.10L87.39 5.10Q88.28 4.59 89.39 4.59L89.39 4.59ZM89.39 11.63L89.39 11.63Q90.26 11.63 90.96 11.23L90.96 11.23L90.96 11.23Q91.66 10.82 92.06 10.11L92.06 10.11L92.06 10.11Q92.46 9.39 92.46 8.51L92.46 8.51L92.46 8.51Q92.46 7.63 92.06 6.92L92.06 6.92L92.06 6.92Q91.66 6.20 90.96 5.79L90.96 5.79L90.96 5.79Q90.26 5.38 89.39 5.38L89.39 5.38L89.39 5.38Q88.52 5.38 87.82 5.79L87.82 5.79L87.82 5.79Q87.12 6.20 86.72 6.92L86.72 6.92L86.72 6.92Q86.31 7.63 86.31 8.51L86.31 8.51L86.31 8.51Q86.31 9.39 86.72 10.11L86.72 10.11L86.72 10.11Q87.12 10.82 87.82 11.23L87.82 11.23L87.82 11.23Q88.52 11.63 89.39 11.63L89.39 11.63ZM98.90 4.58L98.90 4.58Q99.92 4.58 100.72 5.00L100.72 5.00L100.72 5.00Q101.53 5.42 101.98 6.22L101.98 6.22L101.98 6.22Q102.44 7.03 102.44 8.15L102.44 8.15L102.44 11.91L102.44 11.91Q102.44 12.10 102.32 12.21L102.32 12.21L102.32 12.21Q102.20 12.33 102.02 12.33L102.02 12.33L102.02 12.33Q101.84 12.33 101.72 12.21L101.72 12.21L101.72 12.21Q101.60 12.10 101.60 11.91L101.60 11.91L101.60 8.15L101.60 8.15Q101.60 6.82 100.85 6.12L100.85 6.12L100.85 6.12Q100.10 5.42 98.90 5.42L98.90 5.42L98.90 5.42Q98.15 5.42 97.55 5.70L97.55 5.70L97.55 5.70Q96.94 5.99 96.59 6.50L96.59 6.50L96.59 6.50Q96.24 7.01 96.24 7.63L96.24 7.63L96.24 11.91L96.24 11.91Q96.24 12.10 96.12 12.21L96.12 12.21L96.12 12.21Q96.01 12.33 95.82 12.33L95.82 12.33L95.82 12.33Q95.63 12.33 95.52 12.21L95.52 12.21L95.52 12.21Q95.40 12.10 95.40 11.91L95.40 11.91L95.40 5.10L95.40 5.10Q95.40 4.90 95.52 4.79L95.52 4.79L95.52 4.79Q95.63 4.68 95.82 4.68L95.82 4.68L95.82 4.68Q96.01 4.68 96.12 4.79L96.12 4.79L96.12 4.79Q96.24 4.90 96.24 5.10L96.24 5.10L96.24 5.82L96.24 5.82Q96.71 5.24 97.40 4.91L97.40 4.91L97.40 4.91Q98.08 4.58 98.90 4.58L98.90 4.58Z"></path></g><defs data-v-fde0c5aa=""><!----></defs><g data-v-fde0c5aa="" id="143c8ebf-cfc9-45b7-91c8-2f7f3bd85a7a" stroke="none" fill="#D7F9FF" transform="matrix(0.9892071120101213,0,0,0.9892071120101213,105.48567995954453,82.14217683539778)"><path d="M19 74h52c2.8 0 5-2.2 5-5V27c0-2.8-2.2-5-5-5h-9v-2c0-2.2-1.8-4-4-4s-4 1.8-4 4v2H36v-2c0-2.2-1.8-4-4-4s-4 1.8-4 4v2h-9c-2.8 0-5 2.2-5 5v42c0 2.8 2.2 5 5 5zm-1-47c0-.6.4-1 1-1h9v2c0 2.2 1.8 4 4 4s4-1.8 4-4v-2h18v2c0 2.2 1.8 4 4 4s4-1.8 4-4v-2h9c.6 0 1 .4 1 1v42c0 .6-.4 1-1 1H19c-.6 0-1-.4-1-1V27z"></path><path d="M48.1 47l-.5-.6c-.7-.7-2.4-2.4-4.6-2.4-2.2 0-2.7.5-3.6 1.4-.8.8-2 .8-2.8 0-.8-.8-.8-2 0-2.8 1.1-1.1 2.6-2.6 6.4-2.6 3.8 0 6.4 2.6 7.4 3.6l.6.6c0-1.1.9-2 2-2s2 .9 2 2V49c0 1.1-.9 2-2 2h-4.9c-1.1 0-2-.9-2-2s.9-2 2-2zM41.9 54l.5.6c.7.7 2.4 2.4 4.6 2.4 2.2 0 2.7-.5 3.6-1.4.8-.8 2-.8 2.8 0 .8.8.8 2 0 2.8-1.1 1.1-2.6 2.6-6.4 2.6-3.8 0-6.4-2.6-7.4-3.6l-.6-.6c0 1.1-.9 2-2 2s-2-.9-2-2V52c0-1.1.9-2 2-2h4.9c1.1 0 2 .9 2 2s-.9 2-2 2z"></path></g><!----></svg>